<?xml version="1.0" encoding="utf-8"?>
<!-- Generator: Adobe Illustrator 18.1.1, SVG Export Plug-In . SVG Version: 6.00 Build 0)  -->
<svg version="1.1" baseProfile="tiny" id="Layer_1" xmlns="http://www.w3.org/2000/svg" xmlns:xlink="http://www.w3.org/1999/xlink"
	 x="0px" y="0px" viewBox="0 0 376 36" xml:space="preserve">
<g>
	<path fill="#FFFFFF" d="M28,24.4V0.6h-0.7h-2.5c0,0-9.1,17.5-10.2,19.7C13.4,18.1,4.3,0.6,4.3,0.6H1v23.8h2.8V6.2
		c2,3.8,9.5,18.2,9.5,18.2h2.3c0,0,7.5-14.4,9.5-18.2v18.2H28z"/>
	<path fill="#FFFFFF" d="M101.8,0.6c0,0-7.7,9.9-8.7,11.2c-1-1.3-8.6-11.2-8.6-11.2h-3.8c0,0,10.6,13.5,10.9,13.9v9.9h2.8v-9.9
		c0.3-0.4,10.9-13.9,10.9-13.9H104H101.8z"/>
</g>
<polygon fill="#FFFFFF" points="180.7,0.6 162.7,0.6 162.7,24.4 181.6,24.4 181.6,21.7 165.5,21.7 165.5,13.5 180.8,13.5 
	180.8,10.7 165.5,10.7 165.5,3.3 181.4,3.3 181.4,0.6 "/>
<polygon fill="#FFFFFF" points="209.2,0.6 207.1,0.6 207.1,24.4 224.3,24.4 224.3,21.7 209.9,21.7 209.9,0.6 "/>
<polygon fill="#FFFFFF" points="247.7,0.6 245.6,0.6 245.6,24.4 262.8,24.4 262.8,21.7 248.4,21.7 248.4,0.6 "/>
<polygon fill="#FFFFFF" points="286.4,0.6 284.2,0.6 284.2,24.4 287.1,24.4 287.1,0.6 "/>
<path fill="#FFFFFF" d="M329.2,0.6v19.1c-2.1-2.6-15.4-19.1-15.4-19.1H311v23.8h2.8V5.3c2.1,2.6,15.4,19.1,15.4,19.1h2.8V0.6h-0.7
	H329.2z"/>
<polygon fill="#FFFFFF" points="372,0.6 353.9,0.6 353.9,24.4 372.9,24.4 372.9,21.7 356.8,21.7 356.8,13.5 372,13.5 372,10.7 
	356.8,10.7 356.8,3.3 372.7,3.3 372.7,0.6 "/>
<g>
	<path fill="none" d="M139,6.9c0-3.3-2.2-3.6-5.1-3.6h-8.8v7.4h9C137.4,10.7,139,9.5,139,6.9z"/>
	<path fill="none" d="M374.8,3.2c0.6,0,1.1-0.5,1.1-1.2c0-0.7-0.5-1.2-1.1-1.2c-0.6,0-1.1,0.5-1.1,1.2
		C373.7,2.7,374.1,3.2,374.8,3.2z M374.2,1.2h0.6c0.4,0,0.6,0.1,0.6,0.5c0,0.3-0.2,0.4-0.4,0.4l0.5,0.7h-0.3l-0.4-0.7h-0.3v0.7h-0.2
		V1.2z"/>
	<path fill="none" d="M375.2,1.6c0-0.2-0.2-0.2-0.3-0.2h-0.3v0.5h0.3C375,1.9,375.2,1.9,375.2,1.6z"/>
	<path fill="none" d="M133.8,13.5h-8.8v8.2h9.2c3.7,0,5.5-1.4,5.5-4.3C139.7,13.8,136.9,13.5,133.8,13.5z"/>
	<path fill="none" d="M56.2,4.7c-0.9,2-3.7,8.3-4.4,9.8h8.8C59.9,13,57.1,6.8,56.2,4.7z"/>
	<path fill="#FFFFFF" d="M50.6,17.2h11.2c0.3,0.8,3.2,7.2,3.2,7.2h3.2L57.4,0.6H57h-2.1L44.2,24.4h3.2C47.4,24.4,50.2,18,50.6,17.2z
		 M56.2,4.7c0.9,2,3.7,8.3,4.4,9.8h-8.8C52.5,13,55.3,6.8,56.2,4.7z"/>
	<path fill="#FFFFFF" d="M141.8,6.8c0-4-2.6-6.2-7.1-6.2h-11.8h-0.7v23.8h12.3c5.9,0,8-3.5,8-6.9c0-1.1-0.3-4.3-3.4-5.7
		C140.9,10.9,141.8,9.1,141.8,6.8z M125.1,3.3h8.8c2.9,0,5.1,0.3,5.1,3.6c0,2.6-1.6,3.8-4.9,3.8h-9V3.3z M139.7,17.4
		c0,2.8-1.9,4.3-5.5,4.3h-9.2v-8.2h8.8C136.9,13.5,139.7,13.8,139.7,17.4z"/>
	<path fill="#FFFFFF" d="M373.4,2c0,0.8,0.6,1.4,1.4,1.4c0.8,0,1.4-0.6,1.4-1.4v0c0-0.8-0.6-1.4-1.4-1.4C374,0.6,373.4,1.2,373.4,2z
		 M374.8,0.8c0.6,0,1.1,0.5,1.1,1.2c0,0.7-0.5,1.2-1.1,1.2c-0.6,0-1.1-0.5-1.1-1.2C373.7,1.3,374.1,0.8,374.8,0.8z"/>
	<path fill="#FFFFFF" d="M374.5,2.1h0.3l0.4,0.7h0.3L375,2.1c0.2,0,0.4-0.2,0.4-0.4c0-0.3-0.2-0.5-0.6-0.5h-0.6v1.6h0.2V2.1z
		 M374.5,1.4h0.3c0.2,0,0.3,0,0.3,0.2c0,0.2-0.2,0.3-0.4,0.3h-0.3V1.4z"/>
</g>
<polygon fill="#FFFFFF" points="251.8,28.2 251.8,33.8 251.8,33.8 247.3,28.2 245.5,28.2 245.5,35.8 247.2,35.8 247.2,30.2 
	247.2,30.2 251.6,35.8 253.4,35.8 253.4,28.2 "/>
<polygon fill="#FFFFFF" points="265,28.2 265,35.8 272.1,35.8 272.1,34.7 266.7,34.7 266.7,32.4 271.6,32.4 271.6,31.4 266.7,31.4 
	266.7,29.4 272,29.4 272,28.2 "/>
<polygon fill="#FFFFFF" points="293,28.2 291.2,34 291.2,34 289.3,28.2 287.5,28.2 285.6,34 285.5,34 283.8,28.2 282.1,28.2 
	284.6,35.8 286.4,35.8 288.4,30 288.4,30 290.3,35.8 292,35.8 294.7,28.2 "/>
<polygon fill="#FFFFFF" points="317,28.2 314.5,31.6 311.9,28.2 310,28.2 313.6,32.8 313.6,35.8 315.3,35.8 315.3,32.8 318.9,28.2 
	"/>
<g>
	<path fill="none" d="M335.4,32c0-1.5-0.9-2.9-2.9-2.9c-2.1,0-2.9,1.4-2.9,2.9c0,1.5,0.9,2.9,2.9,2.9
		C334.5,34.9,335.4,33.5,335.4,32z"/>
	<path fill="none" d="M351.5,29.3h-2.8v2.4h2.8c1.1,0,1.7-0.4,1.7-1.2C353.2,29.5,352.4,29.3,351.5,29.3z"/>
	<path fill="#FFFFFF" d="M337.1,32c0-2.2-1.7-4-4.6-4c-2.9,0-4.6,1.8-4.6,4c0,2.2,1.7,4,4.6,4h0C335.3,36,337.1,34.2,337.1,32z
		 M329.5,32c0-1.5,0.9-2.9,2.9-2.9c2.1,0,2.9,1.4,2.9,2.9c0,1.5-0.9,2.9-2.9,2.9C330.3,34.9,329.5,33.5,329.5,32z"/>
	<path fill="#FFFFFF" d="M353.3,32.2L353.3,32.2c0.3-0.1,1.6-0.5,1.6-1.9c0-1.3-1.1-2-3.2-2H347v7.6h1.7v-3.1h2.5
		c1.6,0,1.9,0.6,1.9,2c0,0.4,0,0.8,0.3,1.1h1.8c-0.4-0.3-0.5-1.1-0.5-2C354.7,32.6,353.8,32.3,353.3,32.2z M351.5,31.7h-2.8v-2.4
		h2.8c0.9,0,1.7,0.2,1.7,1.2C353.2,31.3,352.6,31.7,351.5,31.7z"/>
</g>
<polygon fill="#FFFFFF" points="370.9,28.2 366.6,31.7 366.6,28.2 364.9,28.2 364.9,35.8 366.6,35.8 366.6,33.3 368,32.2 
	371.2,35.8 373.3,35.8 369.2,31.2 373,28.2 "/>
<g>
</g>
<g>
</g>
<g>
</g>
<g>
</g>
<g>
</g>
<g>
</g>
<g>
</g>
<g>
</g>
<g>
</g>
<g>
</g>
<g>
</g>
<g>
</g>
<g>
</g>
<g>
</g>
<g>
</g>
</svg>
